# xmcd
#
# Track frame offsets: 
#        150
#        10328
#        11348
#        27158
#        28268
#        43471
#        54219
#        71319
#        72684
#        88734
#        90497
#        112307
#        125335
#        126453
#        142338
#        143928
#        158981
#        170201
#        186896
#        188321
#        204004
#        205662
#        217505
#
# Disc length: 3191 seconds
#
# Revision: 0
# Processed by: cddbd v1.5.2PL0 Copyright (c) Steve Scherf et al.
# Submitted via: ExactAudioCopy v0.99pb5
#
DISCID=4f0c7517
DTITLE=Highlands Country - September 5, 2010
DYEAR=2010
DGENRE=Country
TTITLE0=My Best Days Are Ahead Of Me
TTITLE1=Welcome
TTITLE2=I'm Crazy
TTITLE3=Talking
TTITLE4=I Saw God Today
TTITLE5=Announcements - Bill
TTITLE6=The Shoebox
TTITLE7=Talking
TTITLE8=When The Sand Runs Out
TTITLE9=Prayer
TTITLE10=Almost Home
TTITLE11=My Best Days Are Ahead Of Me
TTITLE12=Welcome
TTITLE13=I'm Crazy
TTITLE14=Talking
TTITLE15=I Saw God Today
TTITLE16=Announcements - Bill
TTITLE17=The Shoebox
TTITLE18=Talking
TTITLE19=When The Sand Runs Out
TTITLE20=Prayer
TTITLE21=Tail end of sermon
TTITLE22=Almost Home
EXTD=
EXTT0=
EXTT1=
EXTT2=
EXTT3=
EXTT4=
EXTT5=
EXTT6=
EXTT7=
EXTT8=
EXTT9=
EXTT10=
EXTT11=
EXTT12=
EXTT13=
EXTT14=
EXTT15=
EXTT16=
EXTT17=
EXTT18=
EXTT19=
EXTT20=
EXTT21=
EXTT22=
PLAYORDER=
